<mxfile host="65bd71144e">
    <diagram id="mnijo2aQaWsUQWPd3M8N" name="Page-1">
        <mxGraphModel dx="1074" dy="517" grid="1" gridSize="10" guides="1" tooltips="1" connect="1" arrows="1" fold="1" page="1" pageScale="1" pageWidth="850" pageHeight="1100" math="0" shadow="0">
            <root>
                <mxCell id="0"/>
                <mxCell id="1" parent="0"/>
                <UserObject label="&lt;font style=&quot;font-size: 24px;&quot;&gt;+------------------+&lt;br&gt;| finance_tracker  |&lt;br&gt;|                  |&lt;br&gt;+------------------+&lt;br&gt;         |&lt;br&gt;         +----------------------+&lt;br&gt;         |                      |&lt;br&gt;+--------+-------+    +---------+---------+    +------------+&lt;br&gt;|      app       |    |       tests       |    |  Pipfile   |&lt;br&gt;|                |    |                   |    |            |&lt;br&gt;|  +-------------+    +-------------------+    +------------+&lt;br&gt;|  | __init__.py |    |    __init__.py    |    |            |&lt;br&gt;|  | models.py   |    |    test_models.py |    |            |&lt;br&gt;|  | utils.py    |    |    test_utils.py  |    |            |&lt;br&gt;|  | cli.py      |    |                   |    |            |&lt;br&gt;|  +-------------+    +-------------------+    +------------+&lt;br&gt;|                  |&lt;br&gt;+------------------+&lt;br&gt;         |&lt;br&gt;+------------------+&lt;br&gt;|       db         |&lt;br&gt;| finance_tracker.db|&lt;br&gt;+------------------+&lt;br&gt;         |&lt;br&gt;+------------------+&lt;br&gt;|    README.md     |&lt;br&gt;|    .gitignore    |&lt;br&gt;+------------------+&lt;/font&gt;" link="+------------------+&#10;| finance_tracker  |&#10;|                  |&#10;+------------------+&#10;         |&#10;         +----------------------+&#10;         |                      |&#10;+--------+-------+    +---------+---------+    +------------+&#10;|      app       |    |       tests       |    |  Pipfile   |&#10;|                |    |                   |    |            |&#10;|  +-------------+    +-------------------+    +------------+&#10;|  | __init__.py |    |    __init__.py    |    |            |&#10;|  | models.py   |    |    test_models.py |    |            |&#10;|  | utils.py    |    |    test_utils.py  |    |            |&#10;|  | cli.py      |    |                   |    |            |&#10;|  +-------------+    +-------------------+    +------------+&#10;|                  |&#10;+------------------+&#10;         |&#10;+------------------+&#10;|       db         |&#10;| finance_tracker.db|&#10;+------------------+&#10;         |&#10;+------------------+&#10;|    README.md     |&#10;|    .gitignore    |&#10;+------------------+" id="2">
                    <mxCell style="text;whiteSpace=wrap;html=1;align=center;" vertex="1" parent="1">
                        <mxGeometry x="145" y="120" width="280" height="430" as="geometry"/>
                    </mxCell>
                </UserObject>
            </root>
        </mxGraphModel>
    </diagram>
</mxfile>